<?xml version="1.0" standalone="no"?>
<!DOCTYPE svg PUBLIC "-//W3C//DTD SVG 20010904//EN"
 "http://www.w3.org/TR/2001/REC-SVG-20010904/DTD/svg10.dtd">
<svg version="1.0" xmlns="http://www.w3.org/2000/svg"
 width="31.000000pt" height="26.000000pt" viewBox="0 0 31.000000 26.000000"
 preserveAspectRatio="xMidYMid meet">

<g transform="translate(0.000000,26.000000) scale(0.100000,-0.100000)"
fill="#000000" stroke="none">
<path d="M170 240 c-11 -11 -20 -29 -20 -40 0 -17 -4 -19 -27 -14 -16 3 -45
17 -66 30 -30 20 -38 22 -43 10 -3 -8 -1 -23 5 -34 8 -15 8 -21 -1 -24 -13 -5
7 -48 22 -48 5 0 7 -6 4 -14 -3 -8 5 -21 17 -30 27 -18 22 -26 -23 -36 l-33
-7 28 -12 c66 -26 165 1 204 55 12 16 27 49 34 74 7 25 16 49 21 55 12 14 10
27 -4 19 -8 -5 -8 -1 1 10 13 16 12 17 -11 11 -15 -4 -29 -2 -32 4 -11 18 -54
13 -76 -9z"/>
</g>
</svg>
