<?xml version="1.0" standalone="no"?>
<!DOCTYPE svg PUBLIC "-//W3C//DTD SVG 20010904//EN"
 "http://www.w3.org/TR/2001/REC-SVG-20010904/DTD/svg10.dtd">
<svg version="1.0" xmlns="http://www.w3.org/2000/svg"
 width="18.000000pt" height="33.000000pt" viewBox="0 0 18.000000 33.000000"
 preserveAspectRatio="xMidYMid meet">

<g transform="translate(0.000000,33.000000) scale(0.100000,-0.100000)"
fill="#000000" stroke="none">
<path d="M75 305 c-17 -16 -25 -35 -25 -60 0 -31 -3 -35 -25 -35 -21 0 -25 -5
-25 -30 0 -25 4 -30 25 -30 24 0 25 -2 25 -70 l0 -70 30 0 30 0 0 70 c0 67 1
70 24 70 16 0 26 7 30 23 9 35 8 37 -24 37 -25 0 -30 4 -30 23 0 28 17 47 42
47 13 0 18 8 18 25 0 22 -4 25 -35 25 -25 0 -44 -8 -60 -25z"/>
</g>
</svg>
